<?xml version="1.0" encoding="UTF-8" standalone="no"?>
<!-- Created with Inkscape (http://www.inkscape.org/) -->

<svg
   width="100mm"
   height="100mm"
   viewBox="0 0 100 100"
   version="1.1"
   id="svg1"
   xmlns="http://www.w3.org/2000/svg"
   xmlns:svg="http://www.w3.org/2000/svg">
  <defs
     id="defs1" />
  <g
     id="layer1">
    <path
       id="circle2"
       style="stroke-width:3;stroke-linecap:square;paint-order:stroke markers fill"
       d="M 12.846761,0 A 12.153398,12.153398 0 0 0 25.000024,12.153263 12.153398,12.153398 0 0 0 37.153288,0 h -5.885429 l 0.268717,0.39119059 0.843876,0.001034 -0.51418,0.66972661 0.259932,0.8030517 -0.795817,-0.28267 -0.683162,0.4955769 0.02274,-0.8438761 L 29.987834,0.73690592 30.797087,0.49816081 30.959867,0 H 29.042155 L 28.728479,0.45371908 30.49943,5.1175171 25.720394,3.6865967 21.832259,6.8114705 21.716504,1.8241781 18.929594,0 Z M 62.84681,0 A 12.153398,12.153398 0 0 0 75.000073,12.153263 12.153398,12.153398 0 0 0 87.153337,0 H 79.837504 L 82.545349,4.0555664 77.170483,3.7046834 73.83477,7.9333659 72.507202,2.7135295 67.454797,0.84801025 68.797868,0 Z M 0,12.846761 V 22.85907 l 5.0989136,0.689363 -3.6488729,3.627686 0.9193237,5.06274 L 0,31.022396 v 6.130892 A 12.153398,12.153398 0 0 0 12.153263,25.000024 12.153398,12.153398 0 0 0 0,12.846761 Z m 50.000049,0 A 12.153398,12.153398 0 0 0 37.846785,25.000024 12.153398,12.153398 0 0 0 50.000049,37.153288 12.153398,12.153398 0 0 0 62.153312,25.000024 12.153398,12.153398 0 0 0 50.000049,12.846761 Z m 50.000051,0 A 12.153398,12.153398 0 0 0 87.846834,25.000024 12.153398,12.153398 0 0 0 100.0001,37.153288 v -6.130892 l -2.208136,-1.133264 -4.530473,2.439127 0.819588,-5.079793 -3.719669,-3.554822 5.084444,-0.790132 2.231905,-4.635893 2.322341,4.591451 z m -49.362881,3.841109 0.42013,1.447974 1.43092,0.474906 -1.247469,0.846977 -0.0093,1.507918 -1.191142,-0.924491 -1.437121,0.45682 0.511597,-1.418518 -0.8785,-1.225249 1.506885,0.04806 z m -47.1919513,0.0088 0.5012614,1.767334 1.7399455,0.589112 -1.5265218,1.022676 -0.022738,1.837097 -1.4443563,-1.135848 -1.75389813,0.54622 0.63355303,-1.724442 -1.06091712,-1.49965 1.83554692,0.06976 z m 41.2321083,4.323767 3.172933,2.637049 3.971851,-1.118795 -1.527556,3.833358 2.291333,3.431315 -4.117578,-0.268718 -2.555399,3.240113 -1.016992,-3.999239 -3.871082,-1.429371 3.489193,-2.202966 z m 10.36836,0.779281 1.703255,1.853117 2.491837,-0.352433 -1.2361,2.192114 1.105359,2.26136 -2.467033,-0.49816 -1.809192,1.749764 -0.288354,-2.500106 -2.223637,-1.179773 2.288749,-1.046965 z M 5.5283447,25.811344 5.7934448,27.295492 7.1664876,27.918193 5.8373698,28.62926 5.6694214,30.127877 4.5821493,29.082979 3.1052368,29.38632 3.762561,28.029297 3.0179036,26.718783 4.5113525,26.924972 Z M 24.027474,37.846785 A 12.153398,12.153398 0 0 0 11.874211,50.000049 12.153398,12.153398 0 0 0 24.027474,62.153312 12.153398,12.153398 0 0 0 36.181254,50.000049 12.153398,12.153398 0 0 0 24.027474,37.846785 Z m 50.972599,0 A 12.153398,12.153398 0 0 0 62.84681,50.000049 12.153398,12.153398 0 0 0 75.000073,62.153312 12.153398,12.153398 0 0 0 87.153337,50.000049 12.153398,12.153398 0 0 0 75.000073,37.846785 Z m -47.092216,3.599781 0.500745,1.767334 1.739945,0.589628 -1.526005,1.02216 -0.02325,1.837097 -1.44384,-1.135331 -1.753898,0.545703 0.633553,-1.724443 -1.061434,-1.49965 1.836064,0.06976 z m 44.477389,0.639754 4.142383,3.442684 5.184179,-1.460376 -1.994193,5.003312 2.991032,4.478796 -5.374866,-0.350366 -3.335714,4.228683 -1.327567,-5.219837 -5.052405,-1.866036 4.554244,-2.875276 z m -50.245512,0.931209 2.322856,4.591451 5.098913,0.689881 -3.64939,3.627168 0.919841,5.062741 -4.578015,-2.349211 -4.530473,2.438611 0.820105,-5.079277 -3.71967,-3.555338 5.084445,-0.790133 z m 7.850683,7.543726 0.265617,1.484147 1.373043,0.622701 -1.329634,0.711068 -0.167949,1.498616 -1.087272,-1.044897 -1.476912,0.30334 0.657841,-1.356506 -0.744658,-1.311031 1.493449,0.206189 z M 0,62.84681 v 5.273063 l 2.2463745,4.441073 5.0989136,0.68988 -3.6493897,3.627686 0.9198405,5.062223 L 0.03824056,79.591524 0,79.612195 v 7.541142 A 12.153398,12.153398 0 0 0 12.153263,75.000073 12.153398,12.153398 0 0 0 0,62.84681 Z m 50.000049,0 A 12.153398,12.153398 0 0 0 37.846785,75.000073 12.153398,12.153398 0 0 0 50.000049,87.153337 12.153398,12.153398 0 0 0 62.153312,75.000073 12.153398,12.153398 0 0 0 50.000049,62.84681 Z m 50.000051,0 A 12.153398,12.153398 0 0 0 87.846834,75.000073 12.153398,12.153398 0 0 0 100.0001,87.153337 v -7.52874 l -4.46898,2.406055 0.819588,-5.079793 -3.71967,-3.555339 5.084445,-0.789616 2.231905,-4.636409 0.05271,0.104386 z m -94.3084577,3.551721 0.5007446,1.767334 1.7399455,0.589628 -1.5260051,1.022677 -0.022738,1.83658 -1.4443563,-1.135331 -1.7538981,0.545703 0.633553,-1.723926 -1.0614339,-1.49965 1.8360637,0.06976 z m 42.1142257,0.532784 0.06201,1.221631 1.04128,0.641821 -1.142566,0.436149 -0.288871,1.189075 -0.767912,-0.952397 -1.22008,0.09302 0.668176,-1.024744 -0.465088,-1.131197 1.180807,0.318844 z m 3.243212,0.353984 1.574581,4.733561 4.791956,1.386479 -4.015259,2.960026 0.162264,4.986259 -4.056083,-2.904216 -4.691703,1.694987 1.508435,-4.754749 -3.061829,-3.938777 4.988326,-0.03462 z m 4.801774,9.118823 0.225827,0.81287 0.797884,0.274919 -0.703317,0.466121 -0.01447,0.844393 -0.660942,-0.525032 -0.807185,0.246496 0.295072,-0.790649 -0.484208,-0.691431 0.843359,0.03617 z m -12.886035,0.04703 0.06201,1.222148 1.04128,0.641305 -1.143083,0.436665 -0.288354,1.188558 -0.767912,-0.951879 -1.22008,0.09302 0.668176,-1.024744 -0.465605,-1.131197 1.181323,0.318327 z M 25.000024,87.846834 A 12.153398,12.153398 0 0 0 12.846761,100.0001 h 6.082833 l -1.386996,-0.907957 4.707723,-1.651062 1.308964,-4.81366 3.024622,3.966683 4.982642,-0.242879 -2.524394,3.648875 h 1.917712 l 0.09922,-0.304377 0.208773,0.304377 h 5.885429 A 12.153398,12.153398 0 0 0 25.000024,87.846834 Z m 50.000049,0 A 12.153398,12.153398 0 0 0 62.84681,100.0001 h 5.950541 l 3.21169,-2.027786 0.212907,-5.381583 4.142383,3.442684 5.18418,-1.460376 -1.994194,5.003312 0.283187,0.423749 h 7.315833 A 12.153398,12.153398 0 0 0 75.000073,87.846834 Z m -4.518587,3.894336 -0.276986,1.735812 1.272791,1.211812 -1.735812,0.272852 -0.759643,1.584916 -0.795817,-1.56683 -1.742013,-0.232544 1.243852,-1.241268 -0.316776,-1.728576 1.564762,0.799951 z m -50.105469,1.603003 0.45527,1.135848 1.193208,0.269234 -0.939477,0.783415 0.112655,1.218014 -1.035596,-0.651123 -1.123446,0.483691 0.299207,-1.186491 -0.807186,-0.918807 1.220597,-0.08165 z m 47.052942,2.190047 0.42013,1.447974 1.43092,0.474906 -1.247469,0.846977 -0.0093,1.507402 -1.191142,-0.924492 -1.436604,0.45682 0.511079,-1.418001 -0.878499,-1.225765 1.506885,0.04806 z" />
  </g>
</svg>
