<?xml version="1.0" encoding="UTF-8" standalone="no"?>
<!-- Created with Inkscape (http://www.inkscape.org/) -->

<svg
   width="184.08055mm"
   height="32.669495mm"
   viewBox="0 0 184.08055 32.669495"
   version="1.1"
   id="svg1"
   xml:space="preserve"
   xmlns="http://www.w3.org/2000/svg"
   xmlns:svg="http://www.w3.org/2000/svg"><defs
     id="defs1" /><g
     id="layer1"
     transform="translate(-12.917638,-53.85978)"><path
       id="path3"
       style="fill:#ffffff;fill-opacity:1;stroke:none;stroke-width:2.25941;stroke-linecap:square;paint-order:stroke markers fill"
       d="m 29.252388,53.859777 c -9.021473,-9.9e-5 -16.334845,7.313273 -16.334748,16.334744 -1.02e-4,9.021475 7.313272,16.334853 16.334748,16.334754 9.021286,-1.68e-4 16.334365,-7.313467 16.334263,-16.334754 9.7e-5,-9.021283 -7.312981,-16.334576 -16.334263,-16.334744 z m -1.092712,2.055579 c 0.385698,0.04818 1.196206,1.094933 1.298416,1.809514 0.116465,0.616761 0.581366,1.307581 1.396161,1.298415 0.903574,-0.03821 1.828655,-0.07481 2.717433,0.09727 -0.470015,0.267408 -2.39875,0.688299 -0.897219,0.905482 0.507122,0.127455 1.419842,0.435779 0.404599,0.540282 -0.533766,0.193093 -2.545581,0.513593 -1.102924,0.74063 0.963661,0.303289 -0.839812,0.212487 -1.143772,0.319983 -0.984145,-0.311297 -1.39897,1.273788 -0.260169,1.075688 0.971569,0.06832 1.698961,0.722675 1.92963,1.638339 -0.34015,0.894265 1.424616,1.825908 0.524229,2.852135 -0.372535,0.962989 -2.324381,1.006936 -1.439929,2.266156 0.473259,1.361681 1.009908,2.727635 1.149123,4.17049 0.409355,1.099046 0.731857,2.173887 0.881171,3.346701 -0.217024,0.690406 -0.465342,1.31972 -0.10504,2.077467 -0.180274,0.397121 1.060511,0.756336 0.173608,0.7202 0.32283,0.683725 2.217549,0.8166 1.405402,1.738522 -1.005979,0.390326 -1.989689,-0.291827 -2.981493,-0.382233 -0.617779,-0.573218 0.147115,-1.629935 -0.714858,-2.218492 -0.670379,-0.495328 -1.332316,-1.039487 -1.157875,-1.979722 -0.199647,-1.16504 -0.622266,-2.277053 -1.246868,-3.266946 -0.36833,0.904512 -0.461052,1.85667 -0.77905,2.761201 -0.483201,0.718675 -0.235186,1.893776 -0.946335,2.350766 -0.699738,0.343311 -0.979609,1.502433 -1.283827,2.207303 0.109325,1.039562 -0.986034,1.915307 -1.925739,2.12658 -1.37066,0.02578 -0.519895,-1.476347 0.03356,-1.987983 -0.05019,-0.476018 0.383194,-0.722035 0.278163,-1.353852 0.336183,-0.867812 0.381726,-1.628411 0.05252,-2.455325 0.506978,-0.986054 0.462104,-2.106319 0.846159,-3.162877 0.02699,-0.955225 0.52648,-1.77016 0.711453,-2.687282 0.02491,-0.880836 0.725398,-2.036608 0.451771,-2.686314 -0.939337,-0.851005 -2.506848,-0.818906 -3.114251,-2.107129 -0.442524,-1.023046 1.031508,-1.52147 1.365038,-2.339087 0.366014,-0.932198 1.226662,-1.321771 2.0833,-1.721009 0.486436,-0.131982 1.850354,-0.144159 1.167115,-0.872903 -0.81182,-0.110535 -2.331514,0.129233 -2.251559,-0.226133 0.411488,-0.372973 1.797437,-0.711203 0.877281,-0.944874 -0.920155,-0.23368 -2.034727,0.268649 -1.969993,-0.07679 0.594844,-0.855475 1.421063,-1.554567 2.468935,-1.746296 -0.0048,-0.950454 -1.904696,-1.223479 -1.90872,-1.592632 0.929453,-0.444634 2.164061,-0.506178 2.928,0.29227 0.839806,0.922693 0.148472,-1.008056 0.08656,-1.527465 z m 3.471195,3.060764 c 0.115124,-3.48e-4 0.23036,9.41e-4 0,0.0056 -0.230134,-0.0028 -0.115124,-0.0047 0,-0.0056 z m 0.270868,9.41e-4 c 0.03715,-9.4e-5 0.0751,0.0019 0.0015,0.0066 -0.07501,-0.0047 -0.03865,-0.0066 -0.0015,-0.0066 z m 0.58842,0.01459 c 0.02326,6.6e-5 0.0461,0.0028 -9.41e-4,0.0085 -0.04596,-0.0056 -0.02228,-0.0085 9.41e-4,-0.0085 z m -6.450256,6.878504 c -1.201268,0.397441 0.06414,1.193583 0.657476,1.273609 0.511073,-0.115155 -0.646392,-1.144027 -0.657476,-1.273609 z m 5.522887,0.529573 c -0.0448,0.01534 -0.123857,0.100983 -0.242664,0.295676 0.04812,0.08357 -0.33984,0.375147 -0.152697,0.382713 0.353466,-0.141552 0.529773,-0.724406 0.395361,-0.678389 z m -4.507983,12.384769 c -0.0068,-0.0066 -0.04188,0.03444 -0.0063,0.02531 0.0076,-0.016 0.0086,-0.02324 0.0063,-0.02531 z" /><path
       style="font-size:27.6786px;line-height:0.9;font-family:'Saiyan Sans';-inkscape-font-specification:'Saiyan Sans, Normal';text-align:center;letter-spacing:3.48356px;word-spacing:0.149784px;text-anchor:middle;fill:#ffffff;stroke-width:0.283057;stroke-linecap:round"
       d="m 52.555393,60.49319 q 1.771431,0.05536 3.210718,0.802679 1.466966,0.747322 2.518753,1.937502 1.051786,1.19018 1.688394,2.740181 0.636608,1.522323 0.80268,3.18304 0.19375,1.660716 -0.110715,3.321432 -0.276786,1.660716 -1.107144,3.127681 -0.830358,1.466966 -2.214288,2.601789 -1.38393,1.134822 -3.376789,1.716073 V 68.962841 l -1.051787,-0.332143 z m 3.902683,12.372334 q 0.664286,-0.138393 1.024108,-0.664286 0.387501,-0.525894 0.415179,-1.107144 0.05536,-0.60893 -0.304464,-1.107144 -0.359822,-0.525894 -1.134823,-0.664287 z m 14.27823,7.058043 -2.712503,-4.871434 0.304465,4.539291 h -3.625897 l 0.276786,-9.68751 -0.608929,-0.304465 v -5.72947 q 1.660716,-0.608929 3.127682,-0.581251 1.494644,0.02768 2.601788,0.581251 1.134823,0.525893 1.826788,1.494644 0.719643,0.968751 0.830358,2.214288 0.110714,1.245537 -0.442858,2.712503 -0.553572,1.439287 -1.909823,2.96161 l 3.376789,4.234826 z m -2.712503,-9.410724 q 0.332143,0 0.525894,-0.332143 0.221428,-0.332143 0.249107,-0.775001 0.05536,-0.470536 -0.138393,-0.913394 -0.19375,-0.470536 -0.636608,-0.691965 z m 16.077328,-7.141079 3.100003,16.468767 h -4.34554 L 82.55113,75.190526 81.610057,75.52267 v 4.317861 l -4.34554,-0.304464 2.463395,-16.468768 z m -2.491074,8.386616 h 0.941073 l -0.636608,-2.491074 z m 10.292475,8.10983 -1.217859,-16.524125 5.508042,0.304465 -0.304465,6.753579 2.103574,-4.622327 1.826788,4.622327 V 63.64855 l 5.231258,-0.304465 -1.21786,16.524125 -3.37679,-0.304465 -2.463396,-6.144649 -2.712503,6.449114 z m 17.295158,-0.02768 -0.66429,-16.80091 5.48036,-0.332143 -0.94107,17.133053 z m 12.97732,-16.745553 1.85447,4.650005 v -4.650005 h 3.73661 l 0.30446,16.80091 h -3.73661 l -1.24554,-2.518752 v 2.518752 h -5.59107 l 1.24553,-16.80091 z m 22.99697,6.172328 q 0.24911,0.691965 0.27679,1.19018 0.0554,0.470536 0.0554,0.941072 v 1.522323 q -0.22143,1.466966 -0.88572,2.740182 -0.63661,1.273215 -1.57768,2.214288 -0.94107,0.941072 -2.13125,1.466965 -1.1625,0.525894 -2.40804,0.525894 -1.46697,0 -2.74018,-0.664287 -1.27322,-0.691965 -2.21429,-1.854466 -0.91339,-1.162501 -1.46697,-2.684824 -0.52589,-1.550002 -0.52589,-3.266075 0,-1.688394 0.52589,-3.183039 0.55358,-1.494644 1.46697,-2.601788 0.94107,-1.107144 2.21429,-1.743752 1.27321,-0.636608 2.74018,-0.636608 2.0759,0 3.76429,1.245537 1.71607,1.217858 2.62947,3.293754 l -4.23483,1.190179 q -0.22143,-0.691965 -0.80268,-0.941072 -0.55357,-0.249107 -1.02411,-0.249107 -1.13482,0 -1.9375,0.830358 -0.80268,0.802679 -0.80268,2.186609 0,0.581251 0.22143,1.134823 0.22143,0.525893 0.58125,0.968751 0.3875,0.415179 0.88572,0.691965 0.49821,0.249107 1.05178,0.249107 0.47054,0 1.02411,-0.3875 0.58125,-0.387501 0.80268,-0.858037 l -3.04464,-0.276786 v -3.044646 h 3.34911 4.20714 z m 12.3407,2.241967 q 1.19018,0.802679 1.71608,2.048216 0.52589,1.217858 0.41518,2.463395 -0.083,1.217859 -0.83036,2.241967 -0.71965,1.024108 -2.04822,1.439287 -0.55357,0.138393 -1.55,0.166072 -0.99643,0.02768 -1.99286,-0.02768 -1.1625,-0.02768 -2.49107,-0.138393 l -0.69197,-10.988404 -1.05179,-0.3875 0.33215,-7.058044 q 2.13125,-0.802679 4.0134,-0.802679 1.90982,0 3.37678,0.608929 1.49465,0.608929 2.40804,1.716073 0.94107,1.107144 1.13483,2.518753 0.22142,1.411609 -0.41518,3.016968 -0.63661,1.605358 -2.32501,3.18304 z m -3.93036,-2.795539 q 0.41518,-0.138393 0.60893,-0.608929 0.19375,-0.498215 0.19375,-1.051787 0,-0.581251 -0.19375,-1.107144 -0.19375,-0.553572 -0.60893,-0.80268 z m 0.71965,8.10983 q 0.27678,-0.110715 0.44285,-0.415179 0.16608,-0.304465 0.16608,-0.664287 0,-0.3875 -0.22143,-0.747322 -0.22143,-0.3875 -0.74733,-0.664286 z m 16.3541,-13.4518 3.1,16.468767 h -4.34554 l -0.30446,-4.650005 -0.94108,0.332144 v 4.317861 l -4.34554,-0.304464 2.4634,-16.468768 z m -2.49108,8.386616 h 0.94108 l -0.63661,-2.491074 z m 9.37909,-8.469652 h 4.81607 l -0.91339,10.573226 3.93036,-0.913394 -0.60893,6.033935 -7.52858,0.885715 z m 11.62109,0 h 4.81608 l -0.9134,10.573226 3.93036,-0.913394 -0.60892,6.033935 -7.52858,0.885715 z"
       id="text3"
       aria-label="DrawingBall" /></g></svg>
