<?xml version="1.0" encoding="UTF-8" standalone="no"?>
<!-- Created with Inkscape (http://www.inkscape.org/) -->

<svg
   width="196.56113mm"
   height="34.716228mm"
   viewBox="0 0 196.56113 34.716228"
   version="1.1"
   id="svg1"
   xml:space="preserve"
   xmlns="http://www.w3.org/2000/svg"
   xmlns:svg="http://www.w3.org/2000/svg"><defs
     id="defs1" /><g
     id="layer1"
     transform="translate(-7.6879029,-4.4498576)"><path
       id="path2"
       style="fill:#ffffff;fill-opacity:1;stroke-width:2.40096;stroke-linecap:square;paint-order:stroke markers fill"
       d="M 25.046016,4.4498576 A 17.357923,17.357923 0 0 0 7.6879028,21.807971 17.357923,17.357923 0 0 0 25.046016,39.166085 17.357923,17.357923 0 0 0 42.403613,21.807971 17.357923,17.357923 0 0 0 25.046016,4.4498576 Z m -1.161169,2.1843628 c 0.409861,0.051179 1.271147,1.1635261 1.379761,1.92288 0.123761,0.6553951 0.617788,1.389501 1.48363,1.3797608 0.960182,-0.040568 1.943219,-0.079543 2.887679,0.1033528 -0.499461,0.284161 -2.549031,0.731428 -0.95343,0.962215 0.538893,0.135442 1.508795,0.463083 0.429948,0.574125 -0.567207,0.205191 -2.705061,0.545778 -1.172022,0.787032 1.024034,0.322296 -0.892426,0.225805 -1.215429,0.340031 -1.045801,-0.330795 -1.486615,1.353594 -0.276469,1.143083 1.032438,0.07258 1.805401,0.767951 2.050521,1.740979 -0.36146,0.95029 1.513868,1.940301 0.557072,3.030823 -0.395874,1.023318 -2.470003,1.070012 -1.53014,2.408122 0.502908,1.446997 1.073178,2.898524 1.221115,4.43177 0.435001,1.167901 0.777707,2.310089 0.936376,3.556372 -0.230621,0.73366 -0.494496,1.402407 -0.111621,2.207618 -0.191568,0.422009 1.126952,0.803728 0.184485,0.765328 0.343055,0.72656 2.356477,0.867761 1.493449,1.847432 -1.069003,0.414781 -2.114342,-0.310105 -3.168282,-0.406177 -0.656483,-0.609126 0.156332,-1.732044 -0.759643,-2.357479 -0.712378,-0.526361 -1.415786,-1.104614 -1.230416,-2.103747 -0.212155,-1.238032 -0.661251,-2.419708 -1.324984,-3.471623 -0.391405,0.961181 -0.489936,1.972995 -0.827857,2.934188 -0.513473,0.763706 -0.24992,2.01242 -1.005623,2.498039 -0.743576,0.364819 -1.040981,1.596566 -1.364258,2.345593 0.116174,1.104687 -1.047808,2.035304 -2.046386,2.25981 -1.456531,0.02736 -0.552466,-1.568841 0.03566,-2.112532 -0.05333,-0.505842 0.407201,-0.767265 0.29559,-1.438672 0.357244,-0.922172 0.405641,-1.73043 0.05581,-2.609143 0.53874,-1.04783 0.491055,-2.238282 0.89917,-3.361035 0.02868,-1.01507 0.559464,-1.881061 0.756026,-2.85564 0.02647,-0.936013 0.770844,-2.164196 0.480074,-2.854606 -0.998186,-0.904318 -2.663901,-0.870211 -3.309358,-2.23914 -0.470248,-1.087142 1.096132,-1.616787 1.450557,-2.485636 0.388945,-0.990599 1.303512,-1.404576 2.213818,-1.828829 0.516911,-0.140245 1.966278,-0.153189 1.240235,-0.927592 -0.862681,-0.117453 -2.477583,0.137333 -2.392619,-0.240296 0.437268,-0.396341 1.910046,-0.755756 0.932243,-1.004073 -0.977803,-0.248318 -2.162202,0.28548 -2.093413,-0.08165 0.632111,-0.909066 1.510092,-1.6519584 2.623613,-1.8557011 -0.0051,-1.0099917 -2.024024,-1.3001231 -2.0283,-1.6924031 0.987682,-0.4724907 2.299638,-0.537897 3.111438,0.3105753 0.892419,0.9805006 0.157773,-1.0712029 0.09198,-1.6231567 z m 3.688664,3.2525146 c 0.122336,-3.643e-4 0.244792,0.00111 0,0.00568 -0.244552,-0.00311 -0.122337,-0.00532 0,-0.00568 z m 0.287837,0.00103 c 0.03948,-9.83e-5 0.0798,0.00211 0.0016,0.00723 -0.07971,-0.00473 -0.04107,-0.00714 -0.0016,-0.00723 z m 0.625285,0.015503 c 0.02472,6.55e-5 0.04899,0.00297 -0.001,0.00878 -0.04884,-0.00607 -0.02368,-0.00885 0.001,-0.00878 z m 89.481357,4.91753 0.43202,5.571235 h 1.18752 l 0.43202,-5.571235 z m -70.42929,0.216007 0.561206,15.201656 3.304191,-0.280603 V 26.65367 l 3.044259,3.584794 3.304191,-2.483052 -4.426603,-3.865397 4.707206,-7.449675 -4.146,-0.842326 -2.202449,4.707207 0.280603,-5.268413 z m 19.696989,0 0.561206,15.201656 3.304191,-0.280603 V 26.65367 l 3.044259,3.584794 3.304191,-2.483052 -4.426603,-3.865397 4.707206,-7.449675 -4.146,-0.842326 -2.20245,4.707207 0.280603,-5.268413 z m -6.868831,0.02119 -2.224154,14.878161 3.93051,0.280602 v -3.908287 l 0.841809,-0.302307 0.280603,4.210595 h 3.929992 L 64.318555,15.339115 Z m 19.697506,0 -2.224154,14.878161 3.929993,0.280602 v -3.908287 l 0.841809,-0.302307 0.280603,4.210595 h 3.929992 L 84.015544,15.339115 Z m 92.675996,0 -2.22364,14.878161 3.93,0.280602 v -3.908287 l 0.84181,-0.302307 0.2806,4.210595 h 3.92999 l -2.80706,-14.877645 z m -46.43231,0.03669 c -0.22493,9e-4 -0.45649,0.01774 -0.69401,0.05013 -0.6766,0.143956 -1.23787,0.330876 -1.68414,0.561206 -0.43186,0.230329 -0.79891,0.525327 -1.10122,0.885217 -0.28791,0.345495 -0.51817,0.770495 -0.69092,1.274341 -0.17274,0.48945 -0.32415,1.064828 -0.45371,1.727026 -0.24473,1.295605 -0.17268,2.353934 0.216,3.174483 0.40308,0.820549 1.015,1.43247 1.83555,1.835547 0.27352,0.12956 0.63326,0.287763 1.07952,0.474906 0.46066,0.172747 0.90707,0.366976 1.33894,0.58291 0.43186,0.201538 0.78429,0.425002 1.05781,0.669728 0.28792,0.230329 0.39599,0.460584 0.32401,0.690914 -0.0864,0.273516 -0.26598,0.475052 -0.5395,0.604614 -0.25912,0.12956 -0.53271,0.172894 -0.82062,0.129708 -0.27351,-0.05758 -0.5257,-0.201685 -0.75603,-0.432015 -0.21594,-0.244725 -0.32401,-0.604466 -0.32401,-1.079521 -0.50384,-0.143955 -0.96435,-0.28075 -1.38182,-0.410311 -0.3599,-0.115164 -0.69823,-0.215933 -1.01493,-0.302307 -0.31671,-0.08637 -0.51094,-0.129708 -0.58291,-0.129708 -0.12956,0.59022 -0.13686,1.137398 -0.0217,1.641244 0.11516,0.503846 0.3167,0.957047 0.60461,1.360123 0.30231,0.388682 0.66936,0.719705 1.10123,0.993222 0.44626,0.273516 0.91408,0.475053 1.40353,0.604614 0.50384,0.115166 1.0223,0.158501 1.55494,0.129708 0.54703,-0.04319 1.06498,-0.179982 1.55443,-0.410311 0.74857,-0.331099 1.26703,-0.777508 1.55494,-1.338937 0.30231,-0.575824 0.41039,-1.165819 0.32401,-1.770434 -0.0864,-0.604615 -0.33855,-1.165893 -0.75602,-1.684135 -0.41748,-0.518241 -0.97145,-0.892599 -1.66243,-1.122929 -0.691,-0.230329 -1.24548,-0.453793 -1.66295,-0.669727 -0.41747,-0.230329 -0.7558,-0.460583 -1.01493,-0.690913 -0.25912,-0.215934 -0.42463,-0.474907 -0.49661,-0.777214 -0.0576,-0.316703 -0.0357,-0.604909 0.0651,-0.86403 0.11516,-0.259121 0.3167,-0.46745 0.60461,-0.625802 0.30231,-0.158348 0.68346,-0.208991 1.14412,-0.151411 0.40308,0.07198 0.66257,0.230181 0.77773,0.474906 0.11517,0.23033 0.15799,0.467893 0.12919,0.712618 -0.0432,0.287911 -0.15075,0.612144 -0.3235,0.972034 0.50385,0.05758 0.98577,0.115019 1.44643,0.172599 0.38868,0.05758 0.77034,0.115019 1.14463,0.172599 0.38868,0.05758 0.68368,0.122326 0.88522,0.194304 0.34549,-1.07967 0.46087,-2.101458 0.34571,-3.065963 -0.10077,-0.978901 -0.38166,-1.821076 -0.84232,-2.526461 -0.44626,-0.71978 -1.05088,-1.259649 -1.81385,-1.619539 -0.56143,-0.280714 -1.17935,-0.419728 -1.85415,-0.417029 z m 15.85071,0.0067 -0.28112,15.137059 6.86677,-0.798917 0.56172,-5.527828 -3.58479,0.84181 0.84232,-9.652124 z m 43.77718,0.0217 c -0.89253,0 -1.72739,0.194229 -2.50476,0.58291 -0.76297,0.38868 -1.43233,0.921242 -2.00815,1.597834 -0.56143,0.662198 -1.00784,1.446939 -1.33893,2.353862 -0.31671,0.892527 -0.47491,1.856881 -0.47491,2.893363 0,1.036484 0.1582,2.022762 0.47491,2.958476 0.33109,0.935714 0.7775,1.755965 1.33893,2.461349 0.57582,0.705384 1.24518,1.267179 2.00815,1.684651 0.77737,0.417472 1.61223,0.625802 2.50476,0.625802 0.619,0 1.21683,-0.107561 1.79265,-0.323495 0.59022,-0.230329 1.13688,-0.539944 1.64073,-0.928625 0.50385,-0.403077 0.95757,-0.870895 1.36064,-1.403532 0.40308,-0.547033 0.74141,-1.130237 1.01493,-1.749247 l -4.146,-1.662431 c -0.28792,0.129561 -0.56882,0.259047 -0.84233,0.388607 -0.27352,0.115164 -0.54711,0.172599 -0.82062,0.172599 -0.27352,0 -0.5398,-0.07936 -0.79892,-0.237712 -0.25912,-0.158351 -0.49668,-0.36668 -0.71262,-0.625801 -0.20154,-0.259121 -0.36705,-0.554635 -0.49661,-0.885734 -0.12956,-0.331098 -0.1943,-0.676223 -0.1943,-1.036113 0,-0.403075 0.0647,-0.770126 0.1943,-1.101224 0.12956,-0.345494 0.29507,-0.633701 0.49661,-0.864029 0.21594,-0.244726 0.4535,-0.431646 0.71262,-0.561207 0.25912,-0.143956 0.5254,-0.216007 0.79892,-0.216007 0.41747,0 0.80645,0.07936 1.16633,0.237711 0.37429,0.158351 0.64057,0.453349 0.79892,0.885217 l 3.8437,-1.122928 c -0.27352,-0.619011 -0.61185,-1.180289 -1.01493,-1.684136 -0.40307,-0.503845 -0.85679,-0.936154 -1.36064,-1.296044 -0.50385,-0.35989 -1.05051,-0.640271 -1.64073,-0.841809 -0.57582,-0.201539 -1.17365,-0.302307 -1.79265,-0.302307 z m -96.15279,0.0217 c -0.892527,-0.02879 -1.84278,0.143513 -2.850472,0.517797 v 5.226037 l 0.561723,0.258899 -0.259416,8.831503 h 3.303675 l -0.280603,-4.124296 2.461865,4.426603 2.78536,-2.223637 -3.065963,-3.843693 c 0.834945,-0.921319 1.417631,-1.821446 1.74873,-2.699577 0.331099,-0.892527 0.460585,-1.712778 0.388607,-2.461348 -0.07198,-0.762968 -0.323641,-1.439631 -0.755509,-2.029851 -0.417473,-0.590219 -0.971959,-1.043937 -1.662948,-1.36064 -0.676593,-0.331101 -1.468126,-0.503405 -2.375049,-0.517797 z m 26.67176,0 -9.69554,0.280602 -0.2806,4.556311 3.43338,-0.28112 -0.84232,10.537858 h 4.2323 v -10.25671 h 2.87166 z m 41.18818,0 -7.12618,0.539502 -1.10122,4.923213 0.82062,0.561722 -0.5395,9.04751 6.56394,-1.101225 0.28112,-3.541384 -2.74247,0.798916 0.2806,-1.079519 1.36064,-0.561207 0.2806,-1.641243 -1.64124,0.28063 v -1.641243 l 3.02307,0.540018 z m 6.41511,0 c -0.89252,0 -1.7206,0.194229 -2.48357,0.58291 -0.76296,0.388681 -1.43232,0.921242 -2.00814,1.597835 -0.56143,0.662198 -1.00732,1.446939 -1.33842,2.353861 -0.31671,0.892528 -0.47543,1.849572 -0.47543,2.87166 0,1.036484 0.15872,2.022762 0.47543,2.958476 0.3311,0.921318 0.77699,1.734777 1.33842,2.440161 0.57582,0.690989 1.24518,1.244958 2.00814,1.662431 0.76297,0.417472 1.59105,0.626318 2.48357,0.626318 0.76297,0 1.49707,-0.158203 2.20245,-0.474906 0.70539,-0.331099 1.33872,-0.777508 1.90015,-1.338936 0.57582,-0.561429 1.05826,-1.223476 1.44694,-1.986442 0.38868,-0.777362 0.65495,-1.612747 0.79891,-2.505274 v -1.381828 c 0,-0.273516 -0.0146,-0.554414 -0.0434,-0.842326 -0.0144,-0.302308 -0.10054,-0.662048 -0.25889,-1.07952 h -3.82199 -3.02307 V 23.3717 l 2.74246,0.258899 c -0.12956,0.287912 -0.36712,0.5474 -0.71261,0.77773 -0.3311,0.23033 -0.64072,0.345199 -0.92863,0.345199 -0.34549,0 -0.66973,-0.07884 -0.97203,-0.237195 -0.28792,-0.158352 -0.54689,-0.367198 -0.77722,-0.626318 -0.23033,-0.259121 -0.40994,-0.547327 -0.5395,-0.86403 -0.12956,-0.331099 -0.19482,-0.669431 -0.19482,-1.014925 0,-0.417472 0.0653,-0.791314 0.19482,-1.122413 0.12956,-0.345494 0.30917,-0.6337 0.5395,-0.864029 0.23033,-0.244726 0.4893,-0.431646 0.77722,-0.561207 0.3023,-0.12956 0.62654,-0.194303 0.97203,-0.194303 0.14396,0 0.29485,0.02141 0.4532,0.0646 0.17275,0.02879 0.33147,0.08623 0.47543,0.172599 0.15835,0.08637 0.29514,0.201759 0.41031,0.345715 0.12956,0.129561 0.23033,0.295072 0.3023,0.496611 l 3.84318,-1.079521 c -0.27352,-0.619011 -0.61134,-1.180806 -1.01441,-1.684652 -0.40308,-0.518241 -0.85679,-0.957342 -1.36064,-1.317232 -0.50385,-0.35989 -1.04372,-0.632962 -1.61954,-0.820105 -0.57582,-0.201539 -1.17313,-0.302307 -1.79214,-0.302307 z m 36.49855,0 -2.09445,4.188891 -2.91506,-3.929992 -3.6928,2.116149 4.49171,4.72891 -3.69279,5.290633 3.43338,2.634465 8.16229,-13.452926 z M 21.632271,17.212386 c -1.276528,0.422347 0.06816,1.26836 0.698666,1.353406 0.543092,-0.122369 -0.686888,-1.215706 -0.698666,-1.353406 z m 79.553799,0.199471 c -0.74857,0 -1.460741,0.136794 -2.137335,0.410311 -0.662198,0.259121 -1.25271,0.618861 -1.770952,1.079521 -0.503846,0.460659 -0.906921,1.007837 -1.209228,1.641243 -0.302308,0.633407 -0.453203,1.317379 -0.453203,2.051554 0,0.748572 0.150895,1.461261 0.453203,2.137854 0.302307,0.662198 0.705382,1.252194 1.209228,1.770435 0.518242,0.503846 1.108754,0.906921 1.770952,1.209229 0.676594,0.302307 1.388765,0.453202 2.137335,0.453202 0.73418,0 1.41815,-0.150895 2.05156,-0.453202 0.6334,-0.302308 1.18058,-0.705383 1.64124,-1.209229 0.46066,-0.518241 0.8204,-1.108237 1.07952,-1.770435 0.27351,-0.676593 0.41031,-1.389282 0.41031,-2.137854 0,-0.734175 -0.1368,-1.418147 -0.41031,-2.051554 -0.25912,-0.633406 -0.61886,-1.180584 -1.07952,-1.641243 -0.46066,-0.46066 -1.00784,-0.8204 -1.64124,-1.079521 -0.63341,-0.273517 -1.31738,-0.410311 -2.05156,-0.410311 z m -73.684906,0.363285 c -0.04761,0.0163 -0.131616,0.107309 -0.257866,0.314193 0.05113,0.08877 -0.361131,0.398654 -0.162264,0.406694 0.375611,-0.15042 0.562963,-0.769788 0.42013,-0.720887 z M 90.258057,19.2257 c 0.273516,0.143956 0.460954,0.352802 0.561722,0.626318 0.115163,0.273517 0.165289,0.547105 0.150896,0.820622 -0.0144,0.273516 -0.08645,0.517871 -0.216008,0.733805 -0.12956,0.201539 -0.295072,0.302824 -0.49661,0.302824 z m 10.928013,1.166337 0.73432,1.468127 h 1.46865 l -1.08004,1.122929 0.34572,1.856734 -1.46865,-1.122412 -1.511534,1.122412 0.777734,-1.856734 -1.511539,-1.122929 h 1.856739 z m -38.832253,0.280603 0.561206,2.245858 h -0.841809 z m 19.696989,0 0.561206,2.245858 h -0.841809 z m 92.676514,0 0.56121,2.245341 h -0.84181 z M 22.710758,30.936096 c -0.0072,-0.0065 -0.0445,0.03658 -0.0067,0.02687 0.0081,-0.01703 0.0091,-0.02469 0.0067,-0.02687 z" /></g></svg>
